<?xml version="1.0" encoding="UTF-8" standalone="no"?>
<!-- Created with Inkscape (http://www.inkscape.org/) -->

<svg
   xmlns:dc="http://purl.org/dc/elements/1.1/"
   xmlns:cc="http://creativecommons.org/ns#"
   xmlns:rdf="http://www.w3.org/1999/02/22-rdf-syntax-ns#"
   xmlns:svg="http://www.w3.org/2000/svg"
   xmlns="http://www.w3.org/2000/svg"
   xmlns:xlink="http://www.w3.org/1999/xlink"
   xmlns:sodipodi="http://sodipodi.sourceforge.net/DTD/sodipodi-0.dtd"
   xmlns:inkscape="http://www.inkscape.org/namespaces/inkscape"
   width="19"
   height="19"
   id="svg4770"
   version="1.1"
   inkscape:version="0.48.5 r10040"
   viewBox="0 0 19 19"
   sodipodi:docname="maximize_unfocused.svg">
  <defs
     id="defs4772">
    <linearGradient
       inkscape:collect="always"
       xlink:href="#linearGradient4522"
       id="linearGradient5900"
       gradientUnits="userSpaceOnUse"
       gradientTransform="translate(-1072.3622,-1053.3622)"
       x1="2.0000153"
       y1="1062.8622"
       x2="16.999975"
       y2="1062.8622" />
    <linearGradient
       id="linearGradient4522"
       inkscape:collect="always">
      <stop
         id="stop4560"
         offset="0"
         style="stop-color:#605f59;stop-opacity:1" />
      <stop
         id="stop4562"
         offset="1"
         style="stop-color:#5b5a54;stop-opacity:1" />
    </linearGradient>
    <linearGradient
       inkscape:collect="always"
       id="linearGradient4297">
      <stop
         style="stop-color:#ffffff;stop-opacity:1;"
         offset="0"
         id="stop4523" />
      <stop
         style="stop-color:#000000;stop-opacity:1"
         offset="1"
         id="stop4525" />
    </linearGradient>
    <linearGradient
       inkscape:collect="always"
       xlink:href="#linearGradient4297"
       id="linearGradient7493"
       gradientUnits="userSpaceOnUse"
       gradientTransform="matrix(0,-1,1,0,0,-3.4765625e-5)"
       x1="-1070.3622"
       y1="8.9999962"
       x2="-1055.3622"
       y2="8.9999962" />
    <linearGradient
       inkscape:collect="always"
       xlink:href="#linearGradient4297"
       id="linearGradient7499"
       gradientUnits="userSpaceOnUse"
       gradientTransform="matrix(0,-1.0357118,1.0357118,0,-0.33926172,-37.956735)"
       x1="-1070.1036"
       y1="9.4999952"
       x2="-1055.6208"
       y2="9.4999952" />
    <linearGradient
       inkscape:collect="always"
       xlink:href="#linearGradient4297"
       id="linearGradient6925"
       gradientUnits="userSpaceOnUse"
       gradientTransform="matrix(0,-1.0357118,1.0357118,0,-287.69639,-568.45672)"
       x1="-1070.1036"
       y1="9.4999952"
       x2="-1055.6208"
       y2="9.4999952" />
    <linearGradient
       inkscape:collect="always"
       xlink:href="#linearGradient4297"
       id="linearGradient6928"
       gradientUnits="userSpaceOnUse"
       gradientTransform="matrix(0,-1,1,0,-287.35713,-530.50002)"
       x1="-1070.3622"
       y1="8.9999962"
       x2="-1055.3622"
       y2="8.9999962" />
  </defs>
  <sodipodi:namedview
     id="base"
     pagecolor="#ffffff"
     bordercolor="#666666"
     borderopacity="1.0"
     inkscape:pageopacity="0.0"
     inkscape:pageshadow="2"
     inkscape:zoom="8.0127118"
     inkscape:cx="7.6010312"
     inkscape:cy="10.393299"
     inkscape:document-units="px"
     inkscape:current-layer="layer1"
     showgrid="false"
     fit-margin-top="0"
     fit-margin-left="0"
     fit-margin-right="0"
     fit-margin-bottom="0"
     inkscape:window-width="814"
     inkscape:window-height="444"
     inkscape:window-x="238"
     inkscape:window-y="229"
     inkscape:window-maximized="0" />
  <metadata
     id="metadata4775">
    <rdf:RDF>
      <cc:Work
         rdf:about="">
        <dc:format>image/svg+xml</dc:format>
        <dc:type
           rdf:resource="http://purl.org/dc/dcmitype/StillImage" />
        <dc:title />
      </cc:Work>
    </rdf:RDF>
  </metadata>
  <g
     inkscape:label="Layer 1"
     inkscape:groupmode="layer"
     id="layer1"
     transform="translate(287.35714,-522.86219)">
    <circle
       sodipodi:ry="8.5"
       sodipodi:rx="8.5"
       sodipodi:cy="1062.8622"
       sodipodi:cx="9.4999924"
       d="m 17.999992,1062.8622 a 8.5,8.5 0 0 1 -8.4999996,8.5 8.5,8.5 0 0 1 -8.50000003,-8.5 8.5,8.5 0 0 1 8.50000003,-8.5 8.5,8.5 0 0 1 8.4999996,8.5 z"
       r="8.5"
       cy="1062.8622"
       cx="9.4999924"
       id="circle5890"
       style="color:#000000;fill:#3c3f41;fill-opacity:1;fill-rule:nonzero;stroke:none;stroke-width:8;marker:none;visibility:visible;display:inline;overflow:visible;enable-background:accumulate"
       transform="translate(-287.35713,-530.49999)" />
    <circle
       sodipodi:ry="7.49998"
       sodipodi:rx="7.49998"
       sodipodi:cy="9.4999952"
       sodipodi:cx="-1062.8622"
       d="m -1055.3622,9.4999952 a 7.49998,7.49998 0 0 1 -7.5,7.4999798 7.49998,7.49998 0 0 1 -7.5,-7.4999798 7.49998,7.49998 0 0 1 7.5,-7.4999799 7.49998,7.49998 0 0 1 7.5,7.4999799 z"
       transform="matrix(0,-1,1,0,-287.35713,-530.49999)"
       style="color:#000000;fill:#6c6f71;fill-opacity:0.50196081;fill-rule:nonzero;stroke:none;stroke-width:8;marker:none;visibility:visible;display:inline;overflow:visible;enable-background:accumulate"
       id="circle5892"
       cx="-1062.8622"
       cy="9.4999952"
       r="7.49998" />
    <path
       inkscape:connector-curvature="0"
       id="circle5894"
       d="m -285.35713,532.36131 c 0,4.1362 3.36379,7.5 7.5,7.5 4.13621,0 7.5,-3.3638 7.5,-7.5 0,-4.1362 -3.36379,-7.5 -7.5,-7.5 -4.13621,0 -7.5,3.3638 -7.5,7.5 z m 1,0 c 0,-3.5957 2.90423,-6.5 6.5,-6.5 3.59577,0 6.5,2.9043 6.5,6.5 0,3.5958 -2.90423,6.5 -6.5,6.5 -3.59577,0 -6.5,-2.9042 -6.5,-6.5 z"
       style="font-style:normal;font-variant:normal;font-weight:normal;font-stretch:normal;text-indent:0;text-align:start;text-decoration:none;line-height:normal;letter-spacing:normal;word-spacing:normal;text-transform:none;direction:ltr;block-progression:tb;writing-mode:lr-tb;text-anchor:start;baseline-shift:baseline;opacity:0.02999998;color:#000000;fill:url(#linearGradient6928);fill-opacity:1;stroke:none;stroke-width:1;marker:none;visibility:visible;display:inline;overflow:visible;enable-background:accumulate;font-family:sans-serif;-inkscape-font-specification:sans-serif" />
    <path
       inkscape:connector-curvature="0"
       id="circle5896"
       d="m -285.35713,532.36131 c 0,4.1392 3.36084,7.5 7.5,7.5 4.13916,0 7.5,-3.3608 7.5,-7.5 0,-4.1391 -3.36084,-7.5 -7.5,-7.5 -4.13916,0 -7.5,3.3609 -7.5,7.5 z m 0.5,0 c 0,-3.8689 3.13106,-7 7,-7 3.86894,0 7,3.1311 7,7 0,3.869 -3.13106,7 -7,7 -3.86894,0 -7,-3.131 -7,-7 z"
       style="font-style:normal;font-variant:normal;font-weight:normal;font-stretch:normal;text-indent:0;text-align:start;text-decoration:none;line-height:normal;letter-spacing:normal;word-spacing:normal;text-transform:none;direction:ltr;block-progression:tb;writing-mode:lr-tb;text-anchor:start;baseline-shift:baseline;opacity:0.02999998;color:#000000;fill:url(#linearGradient6925);fill-opacity:1;stroke:none;stroke-width:0.5;marker:none;visibility:visible;display:inline;overflow:visible;enable-background:accumulate;font-family:sans-serif;-inkscape-font-specification:sans-serif" />
    <rect
       y="522.86218"
       x="-287.35715"
       height="19"
       width="19"
       id="rect5898"
       style="color:#000000;fill:none;stroke:none;stroke-width:1;marker:none;visibility:visible;display:inline;overflow:visible;enable-background:accumulate" />
    <path
       style="font-style:normal;font-variant:normal;font-weight:normal;font-stretch:normal;text-indent:0;text-align:start;text-decoration:none;line-height:normal;letter-spacing:normal;word-spacing:normal;text-transform:none;direction:ltr;block-progression:tb;writing-mode:lr-tb;text-anchor:start;baseline-shift:baseline;color:#000000;color-interpolation:sRGB;color-interpolation-filters:linearRGB;fill:#2c2f31;fill-opacity:0.66666669;stroke:none;stroke-width:1;marker:none;visibility:visible;display:inline;overflow:visible;isolation:auto;mix-blend-mode:normal;enable-background:accumulate;clip-rule:nonzero;color-rendering:auto;image-rendering:auto;shape-rendering:auto;text-rendering:auto;font-family:sans-serif;-inkscape-font-specification:sans-serif"
       d="m -281.35742,528.86133 0,0.5 0,6.5 7,0 0,-7 -7,0 z m 1,1 5,0 0,5 -5,0 0,-5 z"
       id="rect4530"
       inkscape:connector-curvature="0" />
  </g>
</svg>
