<?xml version="1.0" encoding="UTF-8" standalone="no"?>
<!-- Created with Inkscape (http://www.inkscape.org/) -->

<svg
   xmlns:dc="http://purl.org/dc/elements/1.1/"
   xmlns:cc="http://creativecommons.org/ns#"
   xmlns:rdf="http://www.w3.org/1999/02/22-rdf-syntax-ns#"
   xmlns:svg="http://www.w3.org/2000/svg"
   xmlns="http://www.w3.org/2000/svg"
   xmlns:xlink="http://www.w3.org/1999/xlink"
   xmlns:sodipodi="http://sodipodi.sourceforge.net/DTD/sodipodi-0.dtd"
   xmlns:inkscape="http://www.inkscape.org/namespaces/inkscape"
   width="19"
   height="19"
   id="svg4875"
   version="1.1"
   inkscape:version="0.48.5 r10040"
   viewBox="0 0 19 19"
   sodipodi:docname="minimize.svg">
  <defs
     id="defs4877">
    <linearGradient
       inkscape:collect="always"
       xlink:href="#linearGradient4809"
       id="linearGradient4795"
       gradientUnits="userSpaceOnUse"
       gradientTransform="translate(-1072.3622,-1053.3622)"
       x1="2.0000153"
       y1="1062.8622"
       x2="16.999975"
       y2="1062.8622" />
    <linearGradient
       inkscape:collect="always"
       id="linearGradient4809">
      <stop
         style="stop-color:#5a5955;stop-opacity:1"
         offset="0"
         id="stop4511" />
      <stop
         id="stop4517"
         offset="0.50001228"
         style="stop-color:#75746d;stop-opacity:1" />
      <stop
         style="stop-color:#8e8d88;stop-opacity:1"
         offset="1"
         id="stop4513" />
    </linearGradient>
    <linearGradient
       inkscape:collect="always"
       xlink:href="#linearGradient4521"
       id="linearGradient4797"
       gradientUnits="userSpaceOnUse"
       gradientTransform="translate(2125.7244,0)"
       x1="-1070.3622"
       y1="9.4999952"
       x2="-1055.3622"
       y2="9.4999952" />
    <linearGradient
       inkscape:collect="always"
       id="linearGradient4521">
      <stop
         style="stop-color:#ffffff;stop-opacity:1;"
         offset="0"
         id="stop4523" />
      <stop
         style="stop-color:#ffffff;stop-opacity:0;"
         offset="1"
         id="stop4525" />
    </linearGradient>
    <linearGradient
       inkscape:collect="always"
       xlink:href="#linearGradient4521"
       id="linearGradient4799"
       gradientUnits="userSpaceOnUse"
       gradientTransform="matrix(1.0357118,0,0,1.0357118,2163.6811,-0.33926172)"
       x1="-1070.3622"
       y1="9.4999952"
       x2="-1055.3622"
       y2="9.4999952" />
    <linearGradient
       id="linearGradient4809-2">
      <stop
         style="stop-color:#5b5d5f;stop-opacity:1;"
         offset="0"
         id="stop4511-6" />
      <stop
         style="stop-color:#8b8d8f;stop-opacity:1;"
         offset="1"
         id="stop4513-6" />
    </linearGradient>
    <linearGradient
       inkscape:collect="always"
       id="linearGradient4521-2">
      <stop
         style="stop-color:#ffffff;stop-opacity:1;"
         offset="0"
         id="stop4523-9" />
      <stop
         style="stop-color:#ffffff;stop-opacity:0;"
         offset="1"
         id="stop4525-9" />
    </linearGradient>
    <linearGradient
       inkscape:collect="always"
       xlink:href="#linearGradient4809-2"
       id="linearGradient6942"
       gradientUnits="userSpaceOnUse"
       gradientTransform="translate(-1072.3622,-1053.3622)"
       x1="2.0000153"
       y1="1062.8622"
       x2="16.999975"
       y2="1062.8622" />
    <linearGradient
       inkscape:collect="always"
       xlink:href="#linearGradient4521-2"
       id="linearGradient6944"
       gradientUnits="userSpaceOnUse"
       gradientTransform="matrix(0,1,1,0,0,2125.7244)"
       x1="-1070.3622"
       y1="9.4999952"
       x2="-1055.3622"
       y2="9.4999952" />
    <linearGradient
       inkscape:collect="always"
       xlink:href="#linearGradient4521-2"
       id="linearGradient6946"
       gradientUnits="userSpaceOnUse"
       gradientTransform="matrix(0,1.0357118,1.0357118,0,-0.33926172,2163.6811)"
       x1="-1070.3622"
       y1="9.4999952"
       x2="-1055.3622"
       y2="9.4999952" />
    <linearGradient
       inkscape:collect="always"
       xlink:href="#linearGradient4809-2"
       id="linearGradient6960"
       gradientUnits="userSpaceOnUse"
       gradientTransform="translate(-1072.3622,-1053.3622)"
       x1="2.0000153"
       y1="1062.8622"
       x2="16.999975"
       y2="1062.8622" />
    <linearGradient
       inkscape:collect="always"
       xlink:href="#linearGradient4521-2"
       id="linearGradient6962"
       gradientUnits="userSpaceOnUse"
       gradientTransform="matrix(0,1,1,0,0,2125.7244)"
       x1="-1070.3622"
       y1="9.4999952"
       x2="-1055.3622"
       y2="9.4999952" />
    <linearGradient
       inkscape:collect="always"
       xlink:href="#linearGradient4521-2"
       id="linearGradient6964"
       gradientUnits="userSpaceOnUse"
       gradientTransform="matrix(0,1.0357118,1.0357118,0,-0.33926172,2163.6811)"
       x1="-1070.3622"
       y1="9.4999952"
       x2="-1055.3622"
       y2="9.4999952" />
    <linearGradient
       inkscape:collect="always"
       xlink:href="#linearGradient4521-2"
       id="linearGradient6968"
       gradientUnits="userSpaceOnUse"
       gradientTransform="matrix(0,1.0357118,1.0357118,0,-287.6964,1633.1811)"
       x1="-1070.3622"
       y1="9.4999952"
       x2="-1055.3622"
       y2="9.4999952" />
    <linearGradient
       inkscape:collect="always"
       xlink:href="#linearGradient4521-2"
       id="linearGradient6971"
       gradientUnits="userSpaceOnUse"
       gradientTransform="matrix(0,1,1,0,-287.35714,1595.2244)"
       x1="-1070.3622"
       y1="9.4999952"
       x2="-1055.3622"
       y2="9.4999952" />
  </defs>
  <sodipodi:namedview
     id="base"
     pagecolor="#ffffff"
     bordercolor="#666666"
     borderopacity="1.0"
     inkscape:pageopacity="0.0"
     inkscape:pageshadow="2"
     inkscape:zoom="7.8188165"
     inkscape:cx="7.3425767"
     inkscape:cy="10.960688"
     inkscape:document-units="px"
     inkscape:current-layer="layer1"
     showgrid="false"
     fit-margin-top="0"
     fit-margin-left="0"
     fit-margin-right="0"
     fit-margin-bottom="0"
     inkscape:window-width="712"
     inkscape:window-height="546"
     inkscape:window-x="974"
     inkscape:window-y="147"
     inkscape:window-maximized="0" />
  <metadata
     id="metadata4880">
    <rdf:RDF>
      <cc:Work
         rdf:about="">
        <dc:format>image/svg+xml</dc:format>
        <dc:type
           rdf:resource="http://purl.org/dc/dcmitype/StillImage" />
        <dc:title />
      </cc:Work>
    </rdf:RDF>
  </metadata>
  <g
     inkscape:label="Layer 1"
     inkscape:groupmode="layer"
     id="layer1"
     transform="translate(287.35715,-522.86219)">
    <g
       id="use4830"
       inkscape:export-filename="maximize.png"
       inkscape:export-xdpi="90"
       inkscape:export-ydpi="90"
       transform="translate(-358.52059,-1596.1156)">
      <circle
         sodipodi:ry="8.5"
         sodipodi:rx="8.5"
         sodipodi:cy="1062.8622"
         sodipodi:cx="9.4999924"
         d="m 17.999992,1062.8622 c 0,4.6944 -3.805579,8.5 -8.4999996,8.5 -4.6944204,0 -8.50000003,-3.8056 -8.50000003,-8.5 0,-4.6944 3.80557963,-8.5 8.50000003,-8.5 4.6944206,0 8.4999996,3.8056 8.4999996,8.5 z"
         r="8.5"
         cy="1062.8622"
         cx="9.4999924"
         id="circle6950"
         style="color:#000000;fill:#383734;fill-opacity:1;fill-rule:nonzero;stroke:none;stroke-width:8;marker:none;visibility:visible;display:inline;overflow:visible;enable-background:accumulate" />
      <circle
         sodipodi:ry="7.49998"
         sodipodi:rx="7.49998"
         sodipodi:cy="9.4999952"
         sodipodi:cx="-1062.8622"
         d="m -1055.3622,9.4999952 c 0,4.1421248 -3.3579,7.4999798 -7.5,7.4999798 -4.1421,0 -7.5,-3.357855 -7.5,-7.4999798 0,-4.1421245 3.3579,-7.4999799 7.5,-7.4999799 4.1421,0 7.5,3.3578554 7.5,7.4999799 z"
         transform="matrix(0,-1,1,0,0,0)"
         style="color:#000000;fill:url(#linearGradient6960);fill-opacity:1;fill-rule:nonzero;stroke:none;stroke-width:8;marker:none;visibility:visible;display:inline;overflow:visible;enable-background:accumulate"
         id="circle6952"
         cx="-1062.8622"
         cy="9.4999952"
         r="7.49998" />
      <path
         inkscape:connector-curvature="0"
         id="path6954"
         d="m 2,1062.8613 c 0,-4.1362 3.363788,-7.5 7.5,-7.5 4.136212,0 7.5,3.3638 7.5,7.5 0,4.1362 -3.363788,7.5 -7.5,7.5 -4.136212,0 -7.5,-3.3638 -7.5,-7.5 z m 1,0 c 0,3.5958 2.9042281,6.5 6.5,6.5 3.595772,0 6.5,-2.9042 6.5,-6.5 0,-3.5957 -2.904228,-6.5 -6.5,-6.5 -3.5957719,0 -6.5,2.9043 -6.5,6.5 z"
         style="font-style:normal;font-variant:normal;font-weight:normal;font-stretch:normal;text-indent:0;text-align:start;text-decoration:none;line-height:normal;letter-spacing:normal;word-spacing:normal;text-transform:none;direction:ltr;block-progression:tb;writing-mode:lr-tb;text-anchor:start;baseline-shift:baseline;opacity:0.07000002;color:#000000;fill:url(#linearGradient6962);fill-opacity:1;stroke:none;stroke-width:1;marker:none;visibility:visible;display:inline;overflow:visible;enable-background:accumulate;font-family:sans-serif;-inkscape-font-specification:sans-serif" />
      <path
         inkscape:connector-curvature="0"
         id="path6956"
         d="m 2,1062.8613 c 0,-4.1391 3.3608366,-7.5 7.5,-7.5 4.139163,0 7.5,3.3609 7.5,7.5 0,4.1392 -3.360837,7.5 -7.5,7.5 -4.1391634,0 -7.5,-3.3608 -7.5,-7.5 z m 0.5,0 c 0,3.869 3.1310567,7 7,7 3.868943,0 7,-3.131 7,-7 0,-3.8689 -3.131057,-7 -7,-7 -3.8689433,0 -7,3.1311 -7,7 z"
         style="font-style:normal;font-variant:normal;font-weight:normal;font-stretch:normal;text-indent:0;text-align:start;text-decoration:none;line-height:normal;letter-spacing:normal;word-spacing:normal;text-transform:none;direction:ltr;block-progression:tb;writing-mode:lr-tb;text-anchor:start;baseline-shift:baseline;opacity:0.07000002;color:#000000;fill:url(#linearGradient6964);fill-opacity:1;stroke:none;stroke-width:0.5;marker:none;visibility:visible;display:inline;overflow:visible;enable-background:accumulate;font-family:sans-serif;-inkscape-font-specification:sans-serif" />
      <rect
         y="1053.3622"
         x="-7.3563765e-06"
         height="19"
         width="19"
         id="rect6958"
         style="color:#000000;fill:none;stroke:none;stroke-width:1;marker:none;visibility:visible;display:inline;overflow:visible;enable-background:accumulate" />
    </g>
    <circle
       sodipodi:ry="8.5"
       sodipodi:rx="8.5"
       sodipodi:cy="1062.8622"
       sodipodi:cx="9.4999924"
       d="m 17.999992,1062.8622 c 0,4.6944 -3.805579,8.5 -8.4999996,8.5 -4.6944204,0 -8.50000003,-3.8056 -8.50000003,-8.5 0,-4.6944 3.80557963,-8.5 8.50000003,-8.5 4.6944206,0 8.4999996,3.8056 8.4999996,8.5 z"
       r="8.5"
       cy="1062.8622"
       cx="9.4999924"
       id="circle4785"
       style="color:#000000;fill:#3b3d3f;fill-opacity:1;fill-rule:nonzero;stroke:none;stroke-width:8;marker:none;visibility:visible;display:inline;overflow:visible;enable-background:accumulate"
       transform="translate(-287.35714,-530.49999)" />
    <circle
       sodipodi:ry="7.49998"
       sodipodi:rx="7.49998"
       sodipodi:cy="9.4999952"
       sodipodi:cx="-1062.8622"
       d="m -1055.3622,9.4999952 c 0,4.1421248 -3.3579,7.4999798 -7.5,7.4999798 -4.1421,0 -7.5,-3.357855 -7.5,-7.4999798 0,-4.1421245 3.3579,-7.4999799 7.5,-7.4999799 4.1421,0 7.5,3.3578554 7.5,7.4999799 z"
       transform="matrix(0,-1,1,0,-287.35714,-530.49999)"
       style="color:#000000;fill:url(#linearGradient6942);fill-opacity:1;fill-rule:nonzero;stroke:none;stroke-width:8;marker:none;visibility:visible;display:inline;overflow:visible;enable-background:accumulate"
       id="circle4787"
       cx="-1062.8622"
       cy="9.4999952"
       r="7.49998" />
    <path
       inkscape:connector-curvature="0"
       id="circle4789"
       d="m -285.35714,532.36131 c 0,-4.1362 3.36379,-7.5 7.5,-7.5 4.13621,0 7.5,3.3638 7.5,7.5 0,4.1362 -3.36379,7.5 -7.5,7.5 -4.13621,0 -7.5,-3.3638 -7.5,-7.5 z m 1,0 c 0,3.5958 2.90423,6.5 6.5,6.5 3.59577,0 6.5,-2.9042 6.5,-6.5 0,-3.5957 -2.90423,-6.5 -6.5,-6.5 -3.59577,0 -6.5,2.9043 -6.5,6.5 z"
       style="font-style:normal;font-variant:normal;font-weight:normal;font-stretch:normal;text-indent:0;text-align:start;text-decoration:none;line-height:normal;letter-spacing:normal;word-spacing:normal;text-transform:none;direction:ltr;block-progression:tb;writing-mode:lr-tb;text-anchor:start;baseline-shift:baseline;opacity:0.07000002;color:#000000;fill:url(#linearGradient6971);fill-opacity:1;stroke:none;stroke-width:1;marker:none;visibility:visible;display:inline;overflow:visible;enable-background:accumulate;font-family:sans-serif;-inkscape-font-specification:sans-serif" />
    <path
       inkscape:connector-curvature="0"
       id="circle4791"
       d="m -285.35714,532.36131 c 0,-4.1391 3.36084,-7.5 7.5,-7.5 4.13916,0 7.5,3.3609 7.5,7.5 0,4.1392 -3.36084,7.5 -7.5,7.5 -4.13916,0 -7.5,-3.3608 -7.5,-7.5 z m 0.5,0 c 0,3.869 3.13106,7 7,7 3.86894,0 7,-3.131 7,-7 0,-3.8689 -3.13106,-7 -7,-7 -3.86894,0 -7,3.1311 -7,7 z"
       style="font-style:normal;font-variant:normal;font-weight:normal;font-stretch:normal;text-indent:0;text-align:start;text-decoration:none;line-height:normal;letter-spacing:normal;word-spacing:normal;text-transform:none;direction:ltr;block-progression:tb;writing-mode:lr-tb;text-anchor:start;baseline-shift:baseline;opacity:0.07000002;color:#000000;fill:url(#linearGradient6968);fill-opacity:1;stroke:none;stroke-width:0.5;marker:none;visibility:visible;display:inline;overflow:visible;enable-background:accumulate;font-family:sans-serif;-inkscape-font-specification:sans-serif" />
    <rect
       y="522.86218"
       x="-287.35715"
       height="19"
       width="19"
       id="rect4793"
       style="color:#000000;fill:none;stroke:none;stroke-width:1;marker:none;visibility:visible;display:inline;overflow:visible;enable-background:accumulate" />
    <rect
       style="color:#000000;fill:#3b3d3f;fill-opacity:1;stroke:none;stroke-width:1;marker:none;visibility:visible;display:inline;overflow:visible;enable-background:accumulate"
       id="rect4834"
       width="7"
       height="1"
       x="-281.35715"
       y="531.86218" />
    <rect
       y="532.86218"
       x="-281.35715"
       height="1"
       width="7"
       id="rect4836"
       style="opacity:0.1;color:#000000;fill:#ffffff;fill-opacity:1;stroke:none;stroke-width:1;marker:none;visibility:visible;display:inline;overflow:visible;enable-background:accumulate" />
  </g>
</svg>
